<?xml version="1.0" standalone="no"?>
<!DOCTYPE svg PUBLIC "-//W3C//DTD SVG 20010904//EN"
 "http://www.w3.org/TR/2001/REC-SVG-20010904/DTD/svg10.dtd">
<svg version="1.0" xmlns="http://www.w3.org/2000/svg"
 width="512.000000pt" height="512.000000pt" viewBox="0 0 512.000000 512.000000"
 preserveAspectRatio="xMidYMid meet">
<metadata>
Created by potrace 1.14, written by Peter Selinger 2001-2017
</metadata>
<g transform="translate(0.000000,512.000000) scale(0.100000,-0.100000)"
fill="#000000" stroke="none">
<path d="M275 5106 c-133 -42 -222 -131 -259 -257 -14 -46 -16 -124 -14 -604
l3 -550 27 -57 c31 -67 94 -138 152 -172 91 -53 83 -53 1001 -51 468 1 863 5
879 9 89 21 203 112 241 191 40 85 42 121 40 665 -1 398 -4 536 -14 570 -30
102 -108 191 -209 238 l-57 27 -875 2 c-689 2 -883 -1 -915 -11z"/>
<path d="M3057 5109 c-122 -29 -232 -135 -268 -259 -20 -68 -23 -2338 -3
-2427 31 -142 144 -251 289 -281 32 -6 358 -9 900 -8 l850 2 59 24 c81 33 158
105 198 188 l33 67 3 1189 c2 1061 1 1195 -13 1244 -31 106 -101 186 -205 236
l-65 31 -870 2 c-489 1 -886 -3 -908 -8z"/>
<path d="M270 2970 c-106 -32 -190 -105 -239 -209 l-26 -56 -2 -1190 c-2 -848
0 -1201 8 -1230 32 -115 102 -199 208 -249 l66 -31 890 0 890 0 67 33 c82 40
158 121 190 202 l22 55 2 1170 c1 757 -2 1188 -8 1220 -28 135 -131 249 -260
287 -33 9 -237 13 -898 13 -765 1 -861 0 -910 -15z"/>
<path d="M3065 1695 c-116 -27 -204 -99 -258 -213 l-32 -67 -1 -540 c0 -297 3
-558 8 -580 25 -111 108 -213 216 -263 l57 -27 890 0 890 0 65 31 c101 49 166
120 200 220 19 54 20 85 17 613 l-2 556 -27 57 c-46 98 -119 163 -233 210 -42
17 -1717 20 -1790 3z"/>
</g>
</svg>
